<svg xmlns="http://www.w3.org/2000/svg"  viewBox="0 0 100 100" width="100px" height="100px"><circle cx="13" cy="29" r="2" fill="#ee3e54"/><circle cx="77" cy="13" r="1" fill="#f1bc19"/><circle cx="50" cy="50" r="37" fill="#fce0a2"/><circle cx="83" cy="15" r="4" fill="#f1bc19"/><circle cx="87" cy="24" r="2" fill="#ee3e54"/><circle cx="81" cy="76" r="2" fill="#fbcd59"/><circle cx="15" cy="63" r="4" fill="#fbcd59"/><circle cx="25" cy="87" r="2" fill="#ee3e54"/><circle cx="19.5" cy="54.5" r="2.5" fill="#fff"/><circle cx="21" cy="67" r="1" fill="#f1bc19"/><circle cx="80" cy="34" r="1" fill="#fff"/><g><path fill="#8889b9" d="M65.719,73H34.281C30.26,73,27,69.74,27,65.719V34.281C27,30.26,30.26,27,34.281,27h31.438 C69.74,27,73,30.26,73,34.281v31.438C73,69.74,69.74,73,65.719,73z"/></g><g><path fill="#a1a1ca" d="M27,65.719C27,69.74,30.26,73,34.281,73h31.438C69.74,73,73,69.74,73,65.719V43.737 c-6.12-5.561-14.25-8.95-23.17-8.95c-8.759,0-16.749,3.273-22.83,8.655V65.719z"/></g><g><path fill="#a2b3cb" d="M27,65.719C27,69.74,30.26,73,34.281,73h31.438C69.74,73,73,69.74,73,65.719v-8.068 C68.742,49.167,59.969,43.34,49.83,43.34c-9.873,0-18.455,5.522-22.83,13.646V65.719z"/></g><g><path fill="#c5def0" d="M34.281,73h31.438c0.56,0,1.103-0.069,1.627-0.189c0.232-1.149,0.356-2.338,0.356-3.556 c0-9.871-8.002-17.873-17.872-17.873s-17.872,8.002-17.872,17.873c0,1.186,0.122,2.343,0.342,3.464 C32.93,72.898,33.593,73,34.281,73z"/></g><g><path fill="#472b29" d="M65.719,73.7H34.281c-4.401,0-7.981-3.58-7.981-7.981V34.281c0-4.401,3.58-7.981,7.981-7.981h31.438 c4.401,0,7.981,3.58,7.981,7.981v31.438C73.7,70.12,70.12,73.7,65.719,73.7z M34.281,27.7c-3.629,0-6.581,2.952-6.581,6.581v31.438 c0,3.629,2.952,6.581,6.581,6.581h31.438c3.629,0,6.581-2.952,6.581-6.581V34.281c0-3.629-2.952-6.581-6.581-6.581H34.281z"/></g><g><path fill="#472b29" d="M64.682,67.857c0.262-0.195,0.518-0.382,0.519-0.719c0.002-0.984-0.547,0.111-3.152-1.16 c-0.788-0.385-1.799-1.038-2.554-1.542c-2.129-1.422-2.158-2.197-3.18-3.966l-0.5-0.695c0.507-0.246,0.593-0.232,0.338-0.886 c-0.607-1.548-0.907-1.086-1.35-2.033l-2.972-5.479c1.475-1.381,1.787-1.919,3.398-2.387l0.274-0.213 c1.456-0.951,1.101-0.582,1.523-1.835c0.13-0.386,0.167-0.408,0.275-0.851c1.744-2.127,3.334-4.432,3.878-5.727l-3.207-0.035 c-1.419,1.746-3.724,4.057-4.812,5.791c0.627,0.479,0.305-0.155,0.537,0.493c-0.781,1.484-4.047,3.013-5.67,3.422 c-0.304-0.298-0.364-0.506-0.944-0.563c0.631-0.866,0.264-0.975-0.435-1.537l-1.933-2.458c-0.918-1.437-1.367-2.924-1.712-3.543 c-0.38-0.682-0.625-0.355-0.585-0.824c0.365-0.423,0.404-0.205,0.988,0.124c2.904,1.633,2.381-0.569,3.108-0.472 c0.378-0.752,0.508-0.359,0.636-1.359l0.893-0.241c-0.027-1.175-0.601-1.947,0.397-2.695c-0.378-0.066,0.561-0.211,0.005-0.004 c-0.002,0.001-0.003,0.003-0.005,0.004c0.048,0.009,0.111,0.017,0.207,0.021c0.086,0.004,0.123,0.012,0.134,0.02 c0.018-0.006,0.036-0.012,0.067-0.022c0.301-0.087,0.07-0.055,0.362-0.297c0.375-0.92,0.759-1.521,0.376-2.59 c-0.295-0.823-0.885-1.388-1.041-1.979c-1.648-0.717-0.033-1.932-3.799-2.226c-0.686-0.053-0.112-0.06-0.737-0.296 c-0.506-0.191-1.651-0.061-2.182,0.055c-0.756,0.166-2.456,1.77-2.681,2.107c-0.64,0.962-1.055,2.37-1.059,3.76 c0.095,1.504-0.049,2.09,0.443,2.763l0.484,0.397c0.015-0.031,0.073,0.031,0.106,0.054c-0.307,0.729-0.16,0.584-0.554,0.903 c-0.33-0.254-0.755-0.341-1.211-0.328c-1.225,1.697,0.228,0.626-2.904,3.116c-1.026,1.902-2.197,2.572-2.823,5.92l-0.298,0.946 l-0.069,3.608l0.591,5.545c0.059,0.735-0.114,1.493-0.043,2.146l1.636,0.057c-0.459,0.395-0.787,0.442,0.727,2.078 C31.428,62.577,28.943,63.105,27,64v1c0,4.418,3.582,8,8,8h30c4.418,0,8-3.582,8-8v0C71.415,66.981,68.103,67.704,64.682,67.857z M42.614,50.916c0.667,0.157,0.53,0.481,1.083,0.994c0.842,0.781,0.569-0.184,1.214,0.341c-0.428,0.275-2.313,1.557-2.789,1.518 C41.966,52.985,42.268,51.536,42.614,50.916z M45.45,60.203c0.493-0.494,3.327-2.295,3.771-2.501 c0.384,1.389,1.506,1.58,1.798,2.772c0.162,0.665,0.437,1.183,0.791,1.582c0.545,0.614,0.81,0.291,1.315,0.028 c2.401,2.917,2.139,2.388,1.99,4.282c-3.092-0.529-7.127-2.527-13.274-3.428L45.45,60.203z"/></g><g><path fill="#472b29" d="M69.5,63c-0.276,0-0.5-0.224-0.5-0.5v-7.67c0-0.276,0.224-0.5,0.5-0.5s0.5,0.224,0.5,0.5v7.67 C70,62.776,69.776,63,69.5,63z"/></g><g><path fill="#472b29" d="M69.5,51.245c-0.276,0-0.5-0.224-0.5-0.5V35.333C69,32.944,67.057,31,64.667,31h-2.75 c-0.276,0-0.5-0.224-0.5-0.5s0.224-0.5,0.5-0.5h2.75C67.607,30,70,32.393,70,35.333v15.411C70,51.021,69.776,51.245,69.5,51.245z"/></g><g><path fill="#472b29" d="M58.5,31h-6.25c-0.276,0-0.5-0.224-0.5-0.5s0.224-0.5,0.5-0.5h6.25c0.276,0,0.5,0.224,0.5,0.5 S58.776,31,58.5,31z"/></g></svg>